<svg xmlns="http://www.w3.org/2000/svg" viewBox="0 0 64 64">
  <path d="M64,32A32,32,0,1,1,32,0,32,32,0,0,1,64,32ZM26.14,48.88c14.2,0,22-11.76,22-22,0-.34,0-.67,0-1a16,16,0,0,0,3.86-4,15.93,15.93,0,0,1-4.44,1.21,7.73,7.73,0,0,0,3.4-4.27A15.61,15.61,0,0,1,46,20.75,7.72,7.72,0,0,0,32.66,26a7.25,7.25,0,0,0,.2,1.76A21.9,21.9,0,0,1,17,19.73,7.71,7.71,0,0,0,19.36,30a7.78,7.78,0,0,1-3.49-1v.09a7.73,7.73,0,0,0,6.19,7.57A7.48,7.48,0,0,1,20,37a7.83,7.83,0,0,1-1.45-.14,7.7,7.7,0,0,0,7.2,5.36,15.54,15.54,0,0,1-9.59,3.29,14.09,14.09,0,0,1-1.84-.11,21.49,21.49,0,0,0,11.79,3.49"/>
</svg>
