<svg xmlns="http://www.w3.org/2000/svg" xmlns:xlink="http://www.w3.org/1999/xlink" viewBox="0 0 64 64">
    <path d="M32,0c-8.69,0-9.78,0-13.19.19A23.59,23.59,0,0,0,11,1.68,15.67,15.67,0,0,0,5.37,5.37,15.67,15.67,0,0,0,1.68,11,23.59,23.59,0,0,0,.19,18.81C0,22.22,0,23.31,0,32s0,9.78.19,13.19A23.59,23.59,0,0,0,1.68,53a15.67,15.67,0,0,0,3.69,5.67A15.67,15.67,0,0,0,11,62.32a23.59,23.59,0,0,0,7.77,1.49C22.22,64,23.31,64,32,64s9.78,0,13.19-.19A23.59,23.59,0,0,0,53,62.32,16.34,16.34,0,0,0,62.32,53a23.59,23.59,0,0,0,1.49-7.77C64,41.78,64,40.69,64,32s0-9.78-.19-13.19A23.59,23.59,0,0,0,62.32,11a15.67,15.67,0,0,0-3.69-5.67A15.67,15.67,0,0,0,53,1.68,23.59,23.59,0,0,0,45.19.19C41.78,0,40.69,0,32,0Zm0,5.77c8.54,0,9.56,0,12.93.18a17.81,17.81,0,0,1,5.94,1.1,9.87,9.87,0,0,1,3.68,2.4A9.87,9.87,0,0,1,57,13.13a17.81,17.81,0,0,1,1.1,5.94c.15,3.37.18,4.39.18,12.93s0,9.56-.18,12.93A17.81,17.81,0,0,1,57,50.87,10.66,10.66,0,0,1,50.87,57a17.81,17.81,0,0,1-5.94,1.1c-3.37.15-4.39.18-12.93.18s-9.56,0-12.93-.18A17.81,17.81,0,0,1,13.13,57a9.87,9.87,0,0,1-3.68-2.4,9.87,9.87,0,0,1-2.4-3.68A17.81,17.81,0,0,1,6,44.93C5.8,41.56,5.77,40.54,5.77,32s0-9.56.18-12.93a17.81,17.81,0,0,1,1.1-5.94,9.87,9.87,0,0,1,2.4-3.68,9.87,9.87,0,0,1,3.68-2.4A17.81,17.81,0,0,1,19.07,6c3.37-.15,4.39-.18,12.93-.18m0,36.9A10.67,10.67,0,1,1,42.67,32,10.67,10.67,0,0,1,32,42.67Zm0-27.1A16.43,16.43,0,1,0,48.43,32,16.42,16.42,0,0,0,32,15.57Zm20.92-.65a3.84,3.84,0,1,1-3.84-3.84,3.84,3.84,0,0,1,3.84,3.84Z"/>
</svg>
