<svg xmlns="http://www.w3.org/2000/svg" xmlns:xlink="http://www.w3.org/1999/xlink" viewBox="0 0 63.95 64.05">
    <path d="M32,0A32,32,0,0,0,20.33,61.81a30.86,30.86,0,0,1,.11-9.19c.58-2.5,3.74-15.91,3.74-15.91A11.62,11.62,0,0,1,23.23,32c0-4.45,2.58-7.77,5.79-7.77,2.74,0,4.06,2.06,4.06,4.51,0,2.74-1.74,6.85-2.66,10.66a4.66,4.66,0,0,0,4.74,5.8c5.69,0,10.06-6,10.06-14.64,0-7.67-5.5-13-13.38-13-9.11,0-14.46,6.83-14.46,13.88a12.56,12.56,0,0,0,2.37,7.3.94.94,0,0,1,.21.92c-.23,1-.79,3.19-.89,3.64s-.48.71-1.08.42C14,41.8,11.48,36,11.48,31.26c0-10.08,7.32-19.36,21.15-19.36,11.09,0,19.73,7.91,19.73,18.49,0,11-7,19.91-16.59,19.91-3.24,0-6.3-1.68-7.33-3.68,0,0-1.6,6.11-2,7.61a35,35,0,0,1-4,8.4A32,32,0,1,0,32,0Z"/>
</svg>
